<svg width="112" height="39" viewBox="0 0 112 39" fill="none" xmlns="http://www.w3.org/2000/svg">
<path d="M22.8605 9.22135C22.8605 12.2102 21.5853 13.9139 19.0348 14.3323L23.0698 23H19.6774L15.7022 14.4369H8.99221V23H5.92863V1.56986H17.6599C21.127 1.56986 22.8605 3.30839 22.8605 6.78543V9.22135ZM8.99221 11.3733H17.4955C18.3125 11.3733 18.9003 11.194 19.259 10.8353C19.6176 10.4767 19.7969 9.88886 19.7969 9.07191V6.93487C19.7969 6.11792 19.6176 5.53011 19.259 5.17144C18.9003 4.81278 18.3125 4.63345 17.4955 4.63345H8.99221V11.3733ZM30.781 7.08431V23H27.837V7.08431H30.781ZM27.6875 0.957148H30.9305V4.02073H27.6875V0.957148ZM35.8471 10.0283C35.8471 9.61986 35.9219 9.23629 36.0713 8.87763C36.2307 8.51897 36.4399 8.21012 36.699 7.95108C36.968 7.68209 37.2818 7.47287 37.6405 7.32342C37.9991 7.16402 38.3777 7.08431 38.7762 7.08431H46.9806V0.957148H49.9247V23H46.9806V20.31C46.9508 20.6787 46.8511 21.0274 46.6818 21.3561C46.5124 21.6849 46.2932 21.9738 46.0242 22.2229C45.7652 22.462 45.4663 22.6513 45.1275 22.7908C44.7888 22.9303 44.4301 23 44.0516 23H38.7762C38.3777 23 37.9991 22.9253 37.6405 22.7758C37.2818 22.6164 36.968 22.4072 36.699 22.1482C36.4399 21.8792 36.2307 21.5653 36.0713 21.2067C35.9219 20.848 35.8471 20.4644 35.8471 20.056V10.0283ZM38.7762 20.056H46.9806V10.0283H38.7762V20.056ZM68.2912 16.5441H57.7555V20.056H68.2912V23H57.7555C57.357 23 56.9784 22.9253 56.6197 22.7758C56.2611 22.6164 55.9472 22.4072 55.6782 22.1482C55.4192 21.8792 55.21 21.5653 55.0506 21.2067C54.9011 20.848 54.8264 20.4644 54.8264 20.056V10.0283C54.8264 9.61986 54.9011 9.23629 55.0506 8.87763C55.21 8.51897 55.4192 8.21012 55.6782 7.95108C55.9472 7.68209 56.2611 7.47287 56.6197 7.32342C56.9784 7.16402 57.357 7.08431 57.7555 7.08431H65.3472C65.7557 7.08431 66.1392 7.16402 66.4979 7.32342C66.8566 7.47287 67.1654 7.68209 67.4245 7.95108C67.6934 8.21012 67.9027 8.51897 68.0521 8.87763C68.2115 9.23629 68.2912 9.61986 68.2912 10.0283V16.5441ZM57.7555 10.0283V13.6H65.3472V10.0283H57.7555Z" fill="#F4F9F4"/>
<path d="M71.5237 1.56986L77.2473 9.59496L83.0009 1.56986H86.7071L79.1154 12.1953L86.8715 23H83.1653L77.2473 14.7657L71.3742 23H67.668L75.4241 12.1953L67.8324 1.56986H71.5237Z" fill="#F4F9F4"/>
<rect x="64.9822" y="19.8125" width="5.02706" height="2.9571" fill="#F4F9F4"/>
<path d="M84.6469 19.8125H90.2653L92.3353 22.7696H84.6469V19.8125Z" fill="#F4F9F4"/>
<path d="M0 1.33069H6.28383V4.28778H1.25677L0 1.33069Z" fill="#F4F9F4"/>
<rect x="30.2363" y="19.8125" width="9.31485" height="2.9571" fill="#F4F9F4"/>
<rect x="21.0693" y="19.8125" width="9.31485" height="2.9571" fill="#F4F9F4"/>
<rect x="49.6053" y="19.8125" width="8.42772" height="2.9571" fill="#F4F9F4"/>
</svg>
