<svg width="19" height="19" viewBox="0 0 19 19" fill="none" xmlns="http://www.w3.org/2000/svg">
<path d="M17.2188 3.5625C17.3762 3.5625 17.5272 3.62506 17.6386 3.73641C17.7499 3.84776 17.8125 3.99878 17.8125 4.15625V14.8438C17.8125 15.0012 17.7499 15.1522 17.6386 15.2636C17.5272 15.3749 17.3762 15.4375 17.2188 15.4375H1.78125C1.62378 15.4375 1.47276 15.3749 1.36141 15.2636C1.25006 15.1522 1.1875 15.0012 1.1875 14.8438V4.15625C1.1875 3.99878 1.25006 3.84776 1.36141 3.73641C1.47276 3.62506 1.62378 3.5625 1.78125 3.5625H17.2188ZM1.78125 2.375C1.30883 2.375 0.855765 2.56267 0.521716 2.89672C0.187667 3.23077 0 3.68383 0 4.15625L0 14.8438C0 15.3162 0.187667 15.7692 0.521716 16.1033C0.855765 16.4373 1.30883 16.625 1.78125 16.625H17.2188C17.6912 16.625 18.1442 16.4373 18.4783 16.1033C18.8123 15.7692 19 15.3162 19 14.8438V4.15625C19 3.68383 18.8123 3.23077 18.4783 2.89672C18.1442 2.56267 17.6912 2.375 17.2188 2.375H1.78125Z" fill="#A7D7C5"/>
<path d="M3.5625 6.53125C3.5625 6.37378 3.62506 6.22276 3.73641 6.11141C3.84776 6.00006 3.99878 5.9375 4.15625 5.9375H14.8438C15.0012 5.9375 15.1522 6.00006 15.2636 6.11141C15.3749 6.22276 15.4375 6.37378 15.4375 6.53125C15.4375 6.68872 15.3749 6.83974 15.2636 6.95109C15.1522 7.06244 15.0012 7.125 14.8438 7.125H4.15625C3.99878 7.125 3.84776 7.06244 3.73641 6.95109C3.62506 6.83974 3.5625 6.68872 3.5625 6.53125ZM3.5625 9.5C3.5625 9.34253 3.62506 9.19151 3.73641 9.08016C3.84776 8.96881 3.99878 8.90625 4.15625 8.90625H14.8438C15.0012 8.90625 15.1522 8.96881 15.2636 9.08016C15.3749 9.19151 15.4375 9.34253 15.4375 9.5C15.4375 9.65747 15.3749 9.8085 15.2636 9.91985C15.1522 10.0312 15.0012 10.0938 14.8438 10.0938H4.15625C3.99878 10.0938 3.84776 10.0312 3.73641 9.91985C3.62506 9.8085 3.5625 9.65747 3.5625 9.5ZM3.5625 12.4688C3.5625 12.3113 3.62506 12.1603 3.73641 12.0489C3.84776 11.9376 3.99878 11.875 4.15625 11.875H11.2812C11.4387 11.875 11.5897 11.9376 11.7011 12.0489C11.8124 12.1603 11.875 12.3113 11.875 12.4688C11.875 12.6262 11.8124 12.7772 11.7011 12.8886C11.5897 12.9999 11.4387 13.0625 11.2812 13.0625H4.15625C3.99878 13.0625 3.84776 12.9999 3.73641 12.8886C3.62506 12.7772 3.5625 12.6262 3.5625 12.4688Z" fill="#A7D7C5"/>
</svg>
