<svg width="20" height="20" viewBox="0 0 20 20" fill="none" xmlns="http://www.w3.org/2000/svg">
<path d="M17.5 3.75C17.8315 3.75 18.1495 3.8817 18.3839 4.11612C18.6183 4.35054 18.75 4.66848 18.75 5V15C18.75 15.3315 18.6183 15.6495 18.3839 15.8839C18.1495 16.1183 17.8315 16.25 17.5 16.25H2.5C2.16848 16.25 1.85054 16.1183 1.61612 15.8839C1.3817 15.6495 1.25 15.3315 1.25 15V5C1.25 4.66848 1.3817 4.35054 1.61612 4.11612C1.85054 3.8817 2.16848 3.75 2.5 3.75H17.5ZM2.5 2.5C1.83696 2.5 1.20107 2.76339 0.732233 3.23223C0.263392 3.70107 0 4.33696 0 5L0 15C0 15.663 0.263392 16.2989 0.732233 16.7678C1.20107 17.2366 1.83696 17.5 2.5 17.5H17.5C18.163 17.5 18.7989 17.2366 19.2678 16.7678C19.7366 16.2989 20 15.663 20 15V5C20 4.33696 19.7366 3.70107 19.2678 3.23223C18.7989 2.76339 18.163 2.5 17.5 2.5H2.5Z" fill="#A7D7C5"/>
<path d="M2.5 6.875C2.5 6.70924 2.56585 6.55027 2.68306 6.43306C2.80027 6.31585 2.95924 6.25 3.125 6.25H5.625C5.79076 6.25 5.94973 6.31585 6.06694 6.43306C6.18415 6.55027 6.25 6.70924 6.25 6.875V8.125C6.25 8.29076 6.18415 8.44973 6.06694 8.56694C5.94973 8.68415 5.79076 8.75 5.625 8.75H3.125C2.95924 8.75 2.80027 8.68415 2.68306 8.56694C2.56585 8.44973 2.5 8.29076 2.5 8.125V6.875ZM2.5 10.625C2.5 10.4592 2.56585 10.3003 2.68306 10.1831C2.80027 10.0658 2.95924 10 3.125 10H9.375C9.54076 10 9.69973 10.0658 9.81694 10.1831C9.93415 10.3003 10 10.4592 10 10.625C10 10.7908 9.93415 10.9497 9.81694 11.0669C9.69973 11.1842 9.54076 11.25 9.375 11.25H3.125C2.95924 11.25 2.80027 11.1842 2.68306 11.0669C2.56585 10.9497 2.5 10.7908 2.5 10.625ZM2.5 13.125C2.5 12.9592 2.56585 12.8003 2.68306 12.6831C2.80027 12.5658 2.95924 12.5 3.125 12.5H4.375C4.54076 12.5 4.69973 12.5658 4.81694 12.6831C4.93415 12.8003 5 12.9592 5 13.125C5 13.2908 4.93415 13.4497 4.81694 13.5669C4.69973 13.6842 4.54076 13.75 4.375 13.75H3.125C2.95924 13.75 2.80027 13.6842 2.68306 13.5669C2.56585 13.4497 2.5 13.2908 2.5 13.125ZM6.25 13.125C6.25 12.9592 6.31585 12.8003 6.43306 12.6831C6.55027 12.5658 6.70924 12.5 6.875 12.5H8.125C8.29076 12.5 8.44973 12.5658 8.56694 12.6831C8.68415 12.8003 8.75 12.9592 8.75 13.125C8.75 13.2908 8.68415 13.4497 8.56694 13.5669C8.44973 13.6842 8.29076 13.75 8.125 13.75H6.875C6.70924 13.75 6.55027 13.6842 6.43306 13.5669C6.31585 13.4497 6.25 13.2908 6.25 13.125ZM10 13.125C10 12.9592 10.0658 12.8003 10.1831 12.6831C10.3003 12.5658 10.4592 12.5 10.625 12.5H11.875C12.0408 12.5 12.1997 12.5658 12.3169 12.6831C12.4342 12.8003 12.5 12.9592 12.5 13.125C12.5 13.2908 12.4342 13.4497 12.3169 13.5669C12.1997 13.6842 12.0408 13.75 11.875 13.75H10.625C10.4592 13.75 10.3003 13.6842 10.1831 13.5669C10.0658 13.4497 10 13.2908 10 13.125ZM13.75 13.125C13.75 12.9592 13.8158 12.8003 13.9331 12.6831C14.0503 12.5658 14.2092 12.5 14.375 12.5H15.625C15.7908 12.5 15.9497 12.5658 16.0669 12.6831C16.1842 12.8003 16.25 12.9592 16.25 13.125C16.25 13.2908 16.1842 13.4497 16.0669 13.5669C15.9497 13.6842 15.7908 13.75 15.625 13.75H14.375C14.2092 13.75 14.0503 13.6842 13.9331 13.5669C13.8158 13.4497 13.75 13.2908 13.75 13.125Z" fill="#A7D7C5"/>
</svg>
