<svg width="22" height="22" viewBox="0 0 22 22" fill="none" xmlns="http://www.w3.org/2000/svg">
<path d="M8.9375 2.75C8.75516 2.75 8.5803 2.82243 8.45136 2.95136C8.32243 3.0803 8.25 3.25516 8.25 3.4375C8.25 3.61984 8.32243 3.7947 8.45136 3.92364C8.5803 4.05257 8.75516 4.125 8.9375 4.125H13.0625C13.2448 4.125 13.4197 4.05257 13.5486 3.92364C13.6776 3.7947 13.75 3.61984 13.75 3.4375C13.75 3.25516 13.6776 3.0803 13.5486 2.95136C13.4197 2.82243 13.2448 2.75 13.0625 2.75H8.9375ZM15.125 11C15.125 12.094 14.6904 13.1432 13.9168 13.9168C13.1432 14.6904 12.094 15.125 11 15.125C9.90598 15.125 8.85677 14.6904 8.08318 13.9168C7.3096 13.1432 6.875 12.094 6.875 11C6.875 9.90598 7.3096 8.85677 8.08318 8.08318C8.85677 7.3096 9.90598 6.875 11 6.875C12.094 6.875 13.1432 7.3096 13.9168 8.08318C14.6904 8.85677 15.125 9.90598 15.125 11Z" fill="#A7D7C5"/>
<path d="M6.1875 0C5.27582 0 4.40148 0.362164 3.75682 1.00682C3.11216 1.65148 2.75 2.52582 2.75 3.4375V19.25C2.75 19.9793 3.03973 20.6788 3.55546 21.1945C4.07118 21.7103 4.77065 22 5.5 22H16.5C17.2293 22 17.9288 21.7103 18.4445 21.1945C18.9603 20.6788 19.25 19.9793 19.25 19.25V3.4375C19.25 2.52582 18.8878 1.65148 18.2432 1.00682C17.5985 0.362164 16.7242 0 15.8125 0L6.1875 0ZM4.125 3.4375C4.125 2.89049 4.3423 2.36589 4.72909 1.97909C5.11589 1.5923 5.64049 1.375 6.1875 1.375H15.8125C16.3595 1.375 16.8841 1.5923 17.2709 1.97909C17.6577 2.36589 17.875 2.89049 17.875 3.4375V18.2806C17.5451 18.0168 17.1873 17.7899 16.808 17.6041C15.664 17.0321 13.8366 16.5 11 16.5C8.16337 16.5 6.336 17.0321 5.192 17.6041C4.81266 17.7899 4.45486 18.0168 4.125 18.2806V3.4375Z" fill="#A7D7C5"/>
</svg>
